External Loads File
version=1
nRows=54
nColumns=13
Range=5.000000e-03-10 seconds
endheader
time 	forceRightX 	forceRightY 	forceRightZ 	pointRightX 	pointRightY 	pointRightZ 	forceLeftX 	forceLeftY 	forceLeftZ 	pointLeftX 	pointLeftY 	pointLeftZ 		
7.505000 38.630565 812.271205 -0.000000 0.477569 0.193758 -0.190746 2.063951 -24.457856 -0.000000 0.248177 0.451256 -0.443852
7.510000 55.817217 827.233277 -0.000000 0.467692 0.187031 -0.191054 -2.452981 -23.451272 -0.000000 0.256059 0.458550 -0.442936
7.515000 72.751745 839.485084 -0.000000 0.457617 0.180810 -0.191016 -7.658869 -20.752464 -0.000000 0.263873 0.465357 -0.442089
7.520000 94.060232 847.801432 -0.000000 0.445987 0.175133 -0.189743 -13.473379 -15.721321 -0.000000 0.273583 0.471591 -0.442946
7.525000 112.575452 852.051865 -0.000000 0.434716 0.170105 -0.189780 -19.374589 -8.035000 -0.000000 0.282762 0.477079 -0.443339
7.530000 129.998415 851.413267 -0.000000 0.423261 0.165721 -0.189570 -24.974920 2.414544 -0.000000 0.291818 0.481979 -0.442716
7.535000 146.956047 845.227643 -0.000000 0.411396 0.161916 -0.189319 -29.808542 15.468676 -0.000000 0.301219 0.486269 -0.442597
7.540000 162.351350 833.249665 -0.000000 0.399267 0.158783 -0.189143 -33.447061 30.649082 -0.000000 0.310746 0.489699 -0.442592
7.545000 175.570713 815.324414 -0.000000 0.387094 0.156310 -0.189081 -35.577079 47.168587 -0.000000 0.320194 0.492524 -0.442564
7.550000 186.494536 791.348620 -0.000000 0.374750 0.154475 -0.188772 -36.041638 63.993354 -0.000000 0.329675 0.494686 -0.442752
7.555000 195.253560 761.296716 -0.000000 0.361818 0.153308 -0.188507 -34.897703 80.112448 -0.000000 0.339116 0.496388 -0.442770
7.560000 201.697767 725.321496 -0.000000 0.348662 0.152910 -0.188092 -32.442867 94.868532 -0.000000 0.348616 0.497600 -0.442535
7.565000 204.922031 683.912211 -0.000000 0.335308 0.153359 -0.187401 -29.209604 108.096694 -0.000000 0.357740 0.498190 -0.442430
7.570000 205.541640 637.264215 -0.000000 0.322113 0.154475 -0.186560 -25.548421 120.116093 -0.000000 0.366765 0.498002 -0.442382
7.575000 203.655889 585.841145 -0.000000 0.308982 0.156284 -0.186078 -21.805454 131.398158 -0.000000 0.375698 0.497152 -0.442453
7.580000 198.997272 530.405509 -0.000000 0.295604 0.158822 -0.185346 -18.323469 142.404117 -0.000000 0.384244 0.495437 -0.442276
7.585000 191.848398 471.736537 -0.000000 0.282358 0.162111 -0.185094 -15.219790 153.583510 -0.000000 0.392599 0.492944 -0.442146
7.590000 181.934067 411.082520 -0.000000 0.269352 0.165814 -0.184853 -12.700653 165.361300 -0.000000 0.400627 0.489614 -0.442175
7.595000 169.341583 349.858976 -0.000000 0.256730 0.170425 -0.184592 -10.886131 178.193633 -0.000000 0.408235 0.485860 -0.442280
7.600000 154.578946 289.543054 -0.000000 0.244421 0.175532 -0.184271 -9.747096 192.546732 -0.000000 0.415446 0.481127 -0.442431
7.605000 137.994146 231.820731 -0.000000 0.232353 0.181072 -0.184349 -9.458477 208.796740 -0.000000 0.422165 0.475709 -0.442590
7.610000 120.466343 178.028306 -0.000000 0.220804 0.187321 -0.184368 -9.953877 227.172832 -0.000000 0.428543 0.469546 -0.442935
7.615000 102.516846 129.457043 -0.000000 0.209871 0.193769 -0.184201 -11.637269 247.660081 -0.000000 0.434484 0.462520 -0.443178
7.620000 85.064642 86.699395 -0.000000 0.199452 0.200800 -0.184164 -14.432043 269.995835 -0.000000 0.440062 0.454878 -0.443643
7.625000 68.702400 50.030576 -0.000000 0.189603 0.208238 -0.183944 -18.418289 293.658008 -0.000000 0.445601 0.446711 -0.444135
7.630000 53.852968 19.332734 -0.000000 0.180540 0.216246 -0.183956 -23.678952 317.930330 -0.000000 0.450638 0.438007 -0.444368
7.635000 40.762439 -5.844997 -0.000000 0.172103 0.224722 -0.183924 -30.080068 342.001665 -0.000000 0.455317 0.428866 -0.444613
7.640000 29.430252 -26.088785 -0.000000 0.164729 0.233606 -0.184062 -37.161543 365.123005 -0.000000 0.459927 0.419181 -0.444711
7.645000 19.731556 -41.881886 -0.000000 0.158100 0.242944 -0.183871 -45.192335 386.661880 -0.000000 0.464146 0.409370 -0.444750
7.650000 11.475227 -53.660186 -0.000000 0.152281 0.252454 -0.183894 -54.152036 406.292499 -0.000000 0.467976 0.399341 -0.444742
7.655000 4.350141 -61.744130 -0.000000 0.147095 0.262387 -0.184000 -63.381169 424.100357 -0.000000 0.471446 0.389024 -0.444761
7.660000 -1.727969 -66.353847 -0.000000 0.142670 0.272217 -0.184053 -73.517075 440.278148 -0.000000 0.474550 0.378535 -0.444840
7.665000 -7.017653 -67.749572 -0.000000 0.137856 0.282400 -0.185669 -83.331517 455.538845 -0.000000 0.477153 0.367772 -0.444848
7.670000 -11.269906 -66.315106 -0.000000 0.134793 0.292338 -0.185615 -94.461312 470.260558 -0.000000 0.479263 0.356928 -0.444720
7.675000 -14.654165 -62.538789 -0.000000 0.132352 0.302600 -0.186019 -105.406266 485.464280 -0.000000 0.480909 0.345951 -0.444963
7.680000 -17.058117 -57.094241 -0.000000 0.130446 0.312793 -0.185974 -116.598077 501.784763 -0.000000 0.481864 0.334924 -0.444880
7.685000 -18.561361 -50.709428 -0.000000 0.129071 0.323050 -0.186345 -127.376296 519.957332 -0.000000 0.482224 0.323814 -0.445072
7.690000 -19.275417 -44.082002 -0.000000 0.128830 0.333414 -0.186633 -137.386647 540.458805 -0.000000 0.482136 0.312760 -0.445040
7.695000 -19.415049 -37.773684 -0.000000 0.129357 0.343771 -0.186815 -146.210651 563.554825 -0.000000 0.481322 0.301748 -0.444948
7.700000 -19.285172 -32.158628 -0.000000 0.130834 0.354205 -0.186828 -153.244375 589.340898 -0.000000 0.479957 0.290804 -0.444847
7.705000 -19.176042 -27.439578 -0.000000 0.132895 0.364604 -0.187416 -158.305263 617.624982 -0.000000 0.477803 0.279971 -0.444985
7.710000 -19.335573 -23.661985 -0.000000 0.135923 0.374909 -0.187591 -161.177814 648.093162 -0.000000 0.475052 0.269312 -0.444920
7.715000 -19.945199 -20.750528 -0.000000 0.139743 0.385115 -0.187759 -161.431589 680.359713 -0.000000 0.471651 0.258767 -0.444843
7.720000 -21.095605 -18.567762 -0.000000 0.144314 0.395210 -0.188179 -159.138217 713.773214 -0.000000 0.467653 0.248510 -0.444676
7.725000 -22.830256 -16.923559 -0.000000 0.149708 0.405062 -0.188648 -154.216317 747.603500 -0.000000 0.462985 0.238603 -0.444510
7.730000 -25.154295 -15.589920 -0.000000 0.155800 0.414697 -0.189015 -146.580849 781.055339 -0.000000 0.457761 0.229074 -0.444378
7.735000 -28.024037 -14.322727 -0.000000 0.162615 0.423920 -0.189503 -136.468474 813.294491 -0.000000 0.451969 0.219966 -0.444171
7.740000 -31.360984 -12.876723 -0.000000 0.170094 0.432904 -0.189887 -123.862090 843.668111 -0.000000 0.445615 0.211360 -0.444086
7.745000 -35.062254 -11.034997 -0.000000 0.178229 0.441495 -0.190266 -108.643679 871.661526 -0.000000 0.438833 0.202983 -0.443958
7.750000 -38.988257 -8.672649 -0.000000 0.186938 0.449650 -0.190759 -91.886940 896.600090 -0.000000 0.431603 0.195195 -0.443855
7.755000 -43.007315 -5.656905 -0.000000 0.196302 0.457331 -0.191290 -73.127103 917.906893 -0.000000 0.423961 0.187925 -0.443725
7.760000 -46.994457 -1.891689 -0.000000 0.206280 0.464700 -0.191617 -52.010435 934.948525 -0.000000 0.415927 0.181140 -0.443586
7.765000 -50.838783 2.723522 -0.000000 0.217485 0.471455 -0.190777 -28.110946 947.219901 -0.000000 0.407588 0.174994 -0.443461
7.770000 -54.460066 8.032300 -0.000000 0.228018 0.477703 -0.191826 -5.726345 954.378555 -0.000000 0.398892 0.169457 -0.443377
